<?xml version="1.0" encoding="UTF-8" standalone="no"?>
<!DOCTYPE svg PUBLIC "-//W3C//DTD SVG 1.1//EN"
 "http://www.w3.org/Graphics/SVG/1.1/DTD/svg11.dtd">
<!-- Generated by graphviz version 2.40.1 (20161225.0304)
 -->
<!-- Title: structs Pages: 1 -->
<svg width="301pt" height="191pt"
 viewBox="0.00 0.00 301.00 191.00" xmlns="http://www.w3.org/2000/svg" xmlns:xlink="http://www.w3.org/1999/xlink">
<g id="graph0" class="graph" transform="scale(1 1) rotate(0) translate(4 187)">
<title>structs</title>
<polygon fill="#ffffff" stroke="transparent" points="-4,4 -4,-187 297,-187 297,4 -4,4"/>
<!-- struct1 -->
<g id="node1" class="node">
<title>struct1</title>
<polygon fill="none" stroke="#000000" points="0,-146.5 0,-182.5 176,-182.5 176,-146.5 0,-146.5"/>
<text text-anchor="middle" x="22" y="-160.8" font-family="Times,serif" font-size="14.00" fill="#000000">input</text>
<polyline fill="none" stroke="#000000" points="44,-146.5 44,-182.5 "/>
<text text-anchor="middle" x="61.5" y="-160.8" font-family="Times,serif" font-size="14.00" fill="#000000">left</text>
<polyline fill="none" stroke="#000000" points="79,-146.5 79,-182.5 "/>
<text text-anchor="middle" x="106.5" y="-160.8" font-family="Times,serif" font-size="14.00" fill="#000000">middle</text>
<polyline fill="none" stroke="#000000" points="134,-146.5 134,-182.5 "/>
<text text-anchor="middle" x="155" y="-160.8" font-family="Times,serif" font-size="14.00" fill="#000000">right</text>
</g>
<!-- struct2 -->
<g id="node2" class="node">
<title>struct2</title>
<polygon fill="none" stroke="#000000" points="46,-73.5 46,-109.5 222,-109.5 222,-73.5 46,-73.5"/>
<text text-anchor="middle" x="68" y="-87.8" font-family="Times,serif" font-size="14.00" fill="#000000">input</text>
<polyline fill="none" stroke="#000000" points="90,-73.5 90,-109.5 "/>
<text text-anchor="middle" x="107.5" y="-87.8" font-family="Times,serif" font-size="14.00" fill="#000000">left</text>
<polyline fill="none" stroke="#000000" points="125,-73.5 125,-109.5 "/>
<text text-anchor="middle" x="152.5" y="-87.8" font-family="Times,serif" font-size="14.00" fill="#000000">middle</text>
<polyline fill="none" stroke="#000000" points="180,-73.5 180,-109.5 "/>
<text text-anchor="middle" x="201" y="-87.8" font-family="Times,serif" font-size="14.00" fill="#000000">right</text>
</g>
<!-- struct1&#45;&gt;struct2 -->
<g id="edge1" class="edge">
<title>struct1:f1&#45;&gt;struct2:f0</title>
<path fill="none" stroke="#000000" d="M107,-146.5C107,-134.0382 107,-128.6592 107,-119.6281"/>
<polygon fill="#000000" stroke="#000000" points="110.5001,-119.5 107,-109.5 103.5001,-119.5 110.5001,-119.5"/>
</g>
<!-- struct3 -->
<g id="node3" class="node">
<title>struct3</title>
<polygon fill="none" stroke="#000000" points="117,-.5 117,-36.5 293,-36.5 293,-.5 117,-.5"/>
<text text-anchor="middle" x="139" y="-14.8" font-family="Times,serif" font-size="14.00" fill="#000000">input</text>
<polyline fill="none" stroke="#000000" points="161,-.5 161,-36.5 "/>
<text text-anchor="middle" x="178.5" y="-14.8" font-family="Times,serif" font-size="14.00" fill="#000000">left</text>
<polyline fill="none" stroke="#000000" points="196,-.5 196,-36.5 "/>
<text text-anchor="middle" x="223.5" y="-14.8" font-family="Times,serif" font-size="14.00" fill="#000000">middle</text>
<polyline fill="none" stroke="#000000" points="251,-.5 251,-36.5 "/>
<text text-anchor="middle" x="272" y="-14.8" font-family="Times,serif" font-size="14.00" fill="#000000">right</text>
</g>
<!-- struct2&#45;&gt;struct3 -->
<g id="edge2" class="edge">
<title>struct2:f2&#45;&gt;struct3:f1</title>
<path fill="none" stroke="#000000" d="M201,-73.5C201,-58.2216 215.3203,-56.0731 221.3616,-46.3339"/>
<polygon fill="#000000" stroke="#000000" points="224.7891,-47.0654 224,-36.5 218.0282,-45.2514 224.7891,-47.0654"/>
</g>
<!-- struct2&#45;&gt;struct3 -->
<g id="edge3" class="edge">
<title>struct2:f2&#45;&gt;struct3:f0</title>
<path fill="none" stroke="#000000" d="M201,-73.5C201,-58.2216 186.6797,-56.0731 180.6384,-46.3339"/>
<polygon fill="#000000" stroke="#000000" points="183.9718,-45.2514 178,-36.5 177.2109,-47.0654 183.9718,-45.2514"/>
</g>
</g>
</svg>
